<?xml version="1.0" standalone="no"?><!DOCTYPE svg PUBLIC "-//W3C//DTD SVG 1.1//EN" "http://www.w3.org/Graphics/SVG/1.1/DTD/svg11.dtd"><svg t="1681896186486" class="icon" viewBox="0 0 1024 1024" version="1.1" xmlns="http://www.w3.org/2000/svg" p-id="83126" xmlns:xlink="http://www.w3.org/1999/xlink" width="200" height="200"><path d="M517.056 1002.112c267.872 0 485.056-217.184 485.056-485.056C1002.112 249.152 784.928 32 517.056 32 249.152 32 32 249.152 32 517.056c0 267.872 217.152 485.056 485.056 485.056z" fill="#DBDFED" p-id="83127"></path><path d="M512 1024C229.248 1024 0 794.752 0 512S229.248 0 512 0s512 229.248 512 512-229.248 512-512 512z m0-50.048c255.136 0 461.952-206.816 461.952-461.952S767.136 50.048 512 50.048 50.048 256.864 50.048 512 256.864 973.952 512 973.952z" fill="#ffffff" p-id="83128" data-spm-anchor-id="a313x.7781069.0.i15" class="selected"></path><path d="M181.632 834.88c35.008-94.304 123.2-161.184 226.432-161.184h207.872c103.264 0 191.424 66.88 226.432 161.216A460.576 460.576 0 0 1 512 973.952a460.576 460.576 0 0 1-330.368-139.04zM512 627.52a184.768 184.768 0 1 1 0-369.6 184.768 184.768 0 1 1 0 369.6z" fill="#FFFFFF" p-id="83129"></path></svg>