<?xml version="1.0" standalone="no"?><!DOCTYPE svg PUBLIC "-//W3C//DTD SVG 1.1//EN" "http://www.w3.org/Graphics/SVG/1.1/DTD/svg11.dtd"><svg t="1681898590217" class="icon" viewBox="0 0 1024 1024" version="1.1" xmlns="http://www.w3.org/2000/svg" p-id="100087" xmlns:xlink="http://www.w3.org/1999/xlink" width="200" height="200"><path d="M861.7 90.2h-698c-53 0-96 43-96 96v508c0 53 43 96 96 96h121.7v158.5L560 790.2h301.7c53 0 96-43 96-96v-508c0-53-43-96-96-96z m-348.8 280c38.7 0 70 31.3 70 70s-31.3 70-70 70-70-31.3-70-70 31.4-70 70-70z m-326.3 70c0-38.7 31.3-70 70-70s70 31.3 70 70-31.3 70-70 70-70-31.4-70-70z m582.1 70c-38.7 0-70-31.3-70-70s31.3-70 70-70 70 31.3 70 70-31.3 70-70 70z" fill="#ffffff" p-id="100088"></path></svg>