<?xml version="1.0" standalone="no"?><!DOCTYPE svg PUBLIC "-//W3C//DTD SVG 1.1//EN" "http://www.w3.org/Graphics/SVG/1.1/DTD/svg11.dtd"><svg t="1681879803119" class="icon" viewBox="0 0 1197 1024" version="1.1" xmlns="http://www.w3.org/2000/svg" p-id="57558" xmlns:xlink="http://www.w3.org/1999/xlink" width="233.7890625" height="200"><path d="M0 0v1024h1197.375661V0z m1125.135802 951.543422H73.251217V73.829136h1051.884585z" p-id="57559" fill="#ffffff"></path><path d="M300.806772 288.959436a48.328466 48.328466 0 0 0-49.339823 46.955908v352.386032a48.328466 48.328466 0 0 0 49.339823 46.955908H670.385891a48.328466 48.328466 0 0 0 49.339823-46.955908V335.698624A48.328466 48.328466 0 0 0 670.385891 288.959436H300.806772z m369.651359 352.386031A48.328466 48.328466 0 0 1 621.262787 688.229136H350.146596a48.328466 48.328466 0 0 1-49.339824-46.955908V382.871252a48.328466 48.328466 0 0 1 49.339824-46.955908H621.262787a48.328466 48.328466 0 0 1 49.195344 46.955908z" p-id="57560" fill="#ffffff"></path><path d="M870.129101 739.519436c17.193086 16.831887 36.119929 22.972275 51.868218 18.854603 20.010441-5.12903 23.911393-26.800988 23.911394-39.659683v-413.211993c0-18.710123-6.429347-34.241693-23.911394-39.659682s-37.781446 5.12903-55.046772 22.322116L710.551252 443.191534c-16.615168 16.181728-24.633792 25.64515-24.706032 65.666032 0 42.260317 15.820529 63.498836 30.9909 77.946808 0.07224 0.07224 140.651005 140.362046 153.292981 152.715062zM895.77425 664.606702c0 12.930935-7.223986 15.748289-16.831887 6.284868L740.097354 528.795767a24.706032 24.706032 0 0 1 0-34.386173l138.917249-141.879083c9.246702-9.463422 16.831887-6.646067 16.831887 6.284868zM398.113862 397.969383h-18.782363c-12.353016 0-13.003175 0-13.003174 13.942292v16.326209a14.447972 14.447972 0 0 1-28.173545 0v-35.036332c0-16.542928 7.223986-22.105397 24.272592-22.105397h35.614251a13.436614 13.436614 0 1 1 0 26.873228z" p-id="57561" fill="#ffffff"></path></svg>