<?xml version="1.0" standalone="no"?><!DOCTYPE svg PUBLIC "-//W3C//DTD SVG 1.1//EN" "http://www.w3.org/Graphics/SVG/1.1/DTD/svg11.dtd"><svg t="1681896141102" class="icon" viewBox="0 0 1024 1024" version="1.1" xmlns="http://www.w3.org/2000/svg" p-id="77910" xmlns:xlink="http://www.w3.org/1999/xlink" width="200" height="200"><path d="M510.683805 510.683805m-397.491003 0a397.491003 397.491003 0 1 0 794.982005 0 397.491003 397.491003 0 1 0-794.982005 0Z" fill="#ED3260" p-id="77911"></path><path d="M655.465296 471.197943h-105.29563v-105.295629c0-21.059126-18.426735-39.485861-39.485861-39.485862s-39.485861 18.426735-39.485862 39.485862v105.295629h-105.295629c-21.059126 0-39.485861 18.426735-39.485862 39.485862s18.426735 39.485861 39.485862 39.485861h105.295629v105.29563c0 21.059126 18.426735 39.485861 39.485862 39.485861s39.485861-18.426735 39.485861-39.485861v-105.29563h105.29563c21.059126 0 39.485861-18.426735 39.485861-39.485861s-18.426735-39.485861-39.485861-39.485862z" fill="#FFFFFF" p-id="77912"></path></svg>