<?xml version="1.0" standalone="no"?><!DOCTYPE svg PUBLIC "-//W3C//DTD SVG 1.1//EN" "http://www.w3.org/Graphics/SVG/1.1/DTD/svg11.dtd"><svg t="1681900889541" class="icon" viewBox="0 0 1024 1024" version="1.1" xmlns="http://www.w3.org/2000/svg" p-id="110566" xmlns:xlink="http://www.w3.org/1999/xlink" width="200" height="200"><path d="M872.901816 402.571814c0-221.499659-195.200321-401.05425-435.992292-401.05425C196.114147 1.519267 0.912123 181.073859 0.912123 402.571814c0 124.695751 61.870975 236.101318 158.913333 309.656346l-27.731741 124.579932c-0.037471 0.194166-12.464125 59.198632 44.430057 30.770276L329.19823 791.279461c34.452626 8.052799 70.531822 12.348306 107.711294 12.348306C677.701495 803.627767 872.901816 624.06977 872.901816 402.571814L872.901816 402.571814zM872.901816 402.571814" p-id="110567" fill="#ffffff"></path><path d="M1022.774486 655.049541c0-80.189049-32.795398-153.308054-86.690219-208.693188-8.003406 231.879049-214.286545 417.592464-467.627801 417.592464-13.809664 0-27.469446-0.579093-40.972532-1.664041 62.344469 64.86182 153.474969 105.776442 255.001891 105.776442 29.014262 0 57.180322-3.350223 84.063862-9.629976l119.162006 59.542681c44.402806 22.187777 34.709811-23.865444 34.675747-24.015327l-21.641045-97.233118C974.484944 839.315224 1022.774486 752.369523 1022.774486 655.049541L1022.774486 655.049541zM1022.774486 655.049541" p-id="110568" fill="#ffffff"></path></svg>